<svg viewBox="0 0 64 64" xmlns="http://www.w3.org/2000/svg"><path d="M32 2c-7.4 0-13.5 6-13.5 13.5 0 7.4 6 13.5 13.5 13.5s13.5-6 13.5-13.5S39.4 2 32 2zm0 18c-2.5 0-4.5-2-4.5-4.5s2-4.5 4.5-4.5 4.5 2 4.5 4.5-2 4.5-4.5 4.5zm16.6 18.1c-3.4 1.9-7.1 3.2-10.8 3.8l10.5 12.9c1.2 1.5 1.5 3.6.4 5.2-1.7 2.6-5.3 2.7-7.1.4l-9.7-11.9-9.6 11.9c-.9 1.1-2.1 1.6-3.4 1.6-1.3 0-2.6-.6-3.5-1.8-1.1-1.5-1-4 .2-5.5l10.4-13c-3.7-.7-7.4-1.9-10.7-3.8-2.1-1.2-2.8-3.8-1.6-6 1.2-2.1 3.9-2.8 6-1.6 7.6 4.3 17.1 4.3 24.8.1 2.1-1.2 4.8-.4 5.9 1.7 1.1 2.2.3 4.8-1.8 6z" fill="#03a9f5"/></svg>